<svg width="217" height="52" viewBox="0 0 217 52" fill="none" xmlns="http://www.w3.org/2000/svg">
<g clip-path="url(#clip0_1_13)">
<rect x="106" width="111" height="52" fill="#990012"/>
<path d="M148.174 37.029H139.358V36.13L142.084 33.984V17.947L134.341 37.029H132.746L125.061 17.744V34.332L128.106 35.869L127.526 37.029H120.74V36.13L123.466 33.984V16.99L120.45 15.366L121.03 14.206H127.323L134.573 32.418L141.794 14.206H148.464V15.105L145.709 17.251V34.796L148.754 35.869L148.174 37.029ZM166.913 37H161.403V34.477L158.126 37.058C157.739 37.2127 157.256 37.29 156.676 37.29C155.013 37.29 153.805 36.8743 153.051 36.043C152.316 35.2117 151.949 34.216 151.949 33.056C151.949 32.36 152.2 31.6737 152.703 30.997C153.206 30.3203 153.921 29.6823 154.849 29.083H161.403V27.227C161.403 25.9703 161.065 25.081 160.388 24.559C159.731 24.037 158.822 23.776 157.662 23.776C156.463 23.776 154.994 24.501 153.254 25.951L152.384 24.849L156.56 21.543C157.333 21.3883 158.261 21.311 159.344 21.311C161.103 21.311 162.466 21.746 163.433 22.616C164.4 23.4667 164.883 24.7137 164.883 26.357V34.825L167.493 35.84L166.913 37ZM157.604 34.825C158.783 34.825 160.05 34.2837 161.403 33.201V30.272H156.27C156.019 30.5813 155.835 30.8907 155.719 31.2C155.622 31.5093 155.574 31.8477 155.574 32.215C155.574 32.9303 155.758 33.549 156.125 34.071C156.492 34.5737 156.985 34.825 157.604 34.825ZM180.285 21.34C180.923 21.34 181.483 21.514 181.967 21.862C182.45 22.21 182.827 22.6933 183.098 23.312L181.184 25.719H180.082C180.004 25.2357 179.859 24.8973 179.647 24.704C179.453 24.4913 179.183 24.385 178.835 24.385C178.409 24.385 177.955 24.501 177.472 24.733C177.008 24.9457 176.476 25.3613 175.877 25.98V34.622L179.937 35.869L179.357 37.029H169.816V36.13L172.397 34.1V25.893L169.816 24.385V23.486L174.775 21.05L175.674 24.617L178.69 21.543C179.096 21.3883 179.627 21.311 180.285 21.311V21.34ZM192.945 35.84L192.365 37H184.274V36.101L186.855 34.071V16.236L184.274 14.438V13.539L189.233 11.683H190.335V34.825L192.945 35.84ZM202.225 37H197.324L191.872 29.344L197.295 24.791L194.511 22.761L195.091 21.601H202.022V22.5L195.294 28.155L200.195 34.825L202.805 35.84L202.225 37Z" fill="white"/>
</g>
<rect x="108" y="2" width="107" height="48" stroke="#990012" stroke-width="4"/>
<g clip-path="url(#clip1_1_13)">
<path d="M30.636 37H21.82V36.101L24.546 33.955V26.299H13.091V34.796L16.136 35.84L15.556 37H6.74V36.101L9.466 33.955V16.381L6.45 15.366L7.03 14.206H15.846V15.105L13.091 17.251V24.994H24.546V16.381L21.53 15.366L22.11 14.206H30.926V15.105L28.171 17.251V34.796L31.216 35.84L30.636 37ZM49.5759 22.5L42.2389 37L36.2069 44.656L35.1049 43.786C36.2069 42.6067 37.0383 41.5723 37.5989 40.683C38.1789 39.7937 38.5849 38.8947 38.8169 37.986C39.0489 37.0967 39.1649 36.0333 39.1649 34.796L35.5109 25.951L32.8139 24.385V23.486L37.7729 21.05L38.8749 25.429L42.4129 34.071L46.5019 25.574L42.6449 22.761L43.2249 21.601H49.5759V22.5ZM68.8854 37H63.3754V34.912L60.6784 37.058C60.0597 37.2127 59.3154 37.29 58.4454 37.29C57.1694 37.29 56.0191 36.9613 54.9944 36.304C53.9891 35.6273 53.1964 34.7187 52.6164 33.578C52.0557 32.4373 51.7754 31.1807 51.7754 29.808C51.7754 28.3193 52.2297 26.9273 53.1384 25.632C54.0471 24.3173 55.1781 23.2733 56.5314 22.5C57.9041 21.7073 59.2284 21.311 60.5044 21.311C61.5677 21.311 62.5344 21.6107 63.4044 22.21V16.236L60.8234 14.438V13.539L65.7824 11.683H66.8844V34.825L69.4654 35.84L68.8854 37ZM59.9244 34.825C60.5044 34.825 61.0554 34.7477 61.5774 34.593C62.1187 34.419 62.7181 34.1 63.3754 33.636V27.024C63.2594 26.0573 62.8051 25.2743 62.0124 24.675C61.2391 24.0563 60.1757 23.747 58.8224 23.747C56.6377 23.747 55.5454 25.3033 55.5454 28.416C55.5454 30.2333 55.9224 31.7607 56.6764 32.998C57.4304 34.216 58.5131 34.825 59.9244 34.825ZM82.2857 21.34C82.9237 21.34 83.4843 21.514 83.9677 21.862C84.451 22.21 84.828 22.6933 85.0987 23.312L83.1847 25.719H82.0827C82.0053 25.2357 81.8603 24.8973 81.6477 24.704C81.4543 24.4913 81.1837 24.385 80.8357 24.385C80.4103 24.385 79.956 24.501 79.4727 24.733C79.0087 24.9457 78.477 25.3613 77.8777 25.98V34.622L81.9377 35.869L81.3577 37.029H71.8167V36.13L74.3977 34.1V25.893L71.8167 24.385V23.486L76.7757 21.05L77.6747 24.617L80.6907 21.543C81.0967 21.3883 81.6283 21.311 82.2857 21.311V21.34ZM96.0188 21.311C97.2948 21.311 98.4354 21.6493 99.4408 22.326C100.465 22.9833 101.258 23.8823 101.819 25.023C102.399 26.1637 102.689 27.4203 102.689 28.793C102.689 30.2817 102.234 31.6833 101.326 32.998C100.417 34.2933 99.2764 35.3373 97.9038 36.13C96.5504 36.9033 95.2358 37.29 93.9598 37.29C92.6838 37.29 91.5334 36.9613 90.5088 36.304C89.5034 35.6273 88.7108 34.7187 88.1308 33.578C87.5701 32.4373 87.2898 31.1807 87.2898 29.808C87.2898 28.3193 87.7441 26.9273 88.6528 25.632C89.5614 24.3173 90.6924 23.2733 92.0458 22.5C93.4184 21.7073 94.7428 21.311 96.0188 21.311ZM94.3368 23.747C92.1521 23.747 91.0598 25.3033 91.0598 28.416C91.0598 30.2527 91.4561 31.7897 92.2488 33.027C93.0414 34.245 94.1724 34.854 95.6418 34.854C97.8264 34.854 98.9188 33.288 98.9188 30.156C98.9188 28.3387 98.5224 26.821 97.7298 25.603C96.9371 24.3657 95.8061 23.747 94.3368 23.747Z" fill="#990012"/>
</g>
<rect x="2" y="2" width="107" height="48" stroke="#990012" stroke-width="4"/>
<defs>
<clipPath id="clip0_1_13">
<rect x="106" width="111" height="52" fill="white"/>
</clipPath>
<clipPath id="clip1_1_13">
<rect width="111" height="52" fill="white"/>
</clipPath>
</defs>
</svg>
